<?xml version="1.0" encoding="utf-8"?>
<!DOCTYPE svg PUBLIC "-//W3C//DTD SVG 1.1//EN" "http://www.w3.org/Graphics/SVG/1.1/DTD/svg11.dtd" [
	<!ENTITY ns_extend "http://ns.adobe.com/Extensibility/1.0/">
	<!ENTITY ns_ai "http://ns.adobe.com/AdobeIllustrator/10.0/">
	<!ENTITY ns_graphs "http://ns.adobe.com/Graphs/1.0/">
	<!ENTITY ns_vars "http://ns.adobe.com/Variables/1.0/">
	<!ENTITY ns_imrep "http://ns.adobe.com/ImageReplacement/1.0/">
	<!ENTITY ns_sfw "http://ns.adobe.com/SaveForWeb/1.0/">
	<!ENTITY ns_custom "http://ns.adobe.com/GenericCustomNamespace/1.0/">
	<!ENTITY ns_adobe_xpath "http://ns.adobe.com/XPath/1.0/">
]>
<svg version="1.1" id="Layer_1" xmlns:x="&ns_extend;" xmlns:i="&ns_ai;" xmlns:graph="&ns_graphs;"
	 xmlns="http://www.w3.org/2000/svg" xmlns:xlink="http://www.w3.org/1999/xlink" x="0px" y="0px" viewBox="0 0 800 800"
	 style="enable-background:new 0 0 800 800;" xml:space="preserve">
<style type="text/css">
	.st0{fill:#ABB6B4;}
</style>
<metadata>
	<sfw  xmlns="&ns_sfw;">
		<slices></slices>
		<sliceSourceBounds  bottomLeftOrigin="true" height="599" width="724.4" x="45.9" y="116.5"></sliceSourceBounds>
	</sfw>
</metadata>
<path d="M737,240.8c-21.3-21.4-50.3-33.4-80.5-33.4h-24.8L582.8,135c-10.4-15.5-24.6-28.3-41.1-37.1c-16.5-8.8-35-13.4-53.7-13.4
	H328.2c-18.7,0-37.2,4.6-53.7,13.4c-16.5,8.8-30.7,21.5-41.1,37.1l-48.8,72.4h-24.8c-30.2,0-59.1,12-80.5,33.4
	c-21.3,21.3-33.3,50.3-33.3,80.5v248.4c0,30.2,12,59.1,33.3,80.5c21.4,21.3,50.3,33.3,80.5,33.3h496.8c30.2,0,59.2-12,80.5-33.3
	c21.4-21.4,33.4-50.3,33.4-80.5V321.3C770.3,291.1,758.3,262.2,737,240.8z M708.2,569.7c0,13.7-5.4,26.9-15.1,36.6
	c-9.7,9.7-22.9,15.2-36.6,15.2H159.7c-13.7,0-26.9-5.5-36.6-15.2c-9.7-9.7-15.2-22.9-15.2-36.6V321.3c0-13.7,5.5-26.9,15.2-36.6
	c9.7-9.7,22.9-15.1,36.6-15.1h41.4c5.1,0,10.1-1.3,14.5-3.6c4.5-2.4,8.3-5.8,11.1-10l60-87.3c4.5-6.9,10.7-12.6,17.9-16.7
	c7.2-4,15.3-6.3,23.5-6.5h162.7c8.2,0.2,16.3,2.5,23.5,6.5c7.2,4,13.3,9.8,17.9,16.7l57.1,87.3c2.8,4.2,6.7,7.6,11.1,10
	c4.5,2.4,9.5,3.6,14.5,3.6h41.4c13.7,0,26.9,5.4,36.6,15.1c9.7,9.7,15.1,22.9,15.1,36.6V569.7z"/>
<path class="st0" d="M693.1,284.7c-9.7-9.7-22.9-15.1-36.6-15.1h-41.4c-5.1,0-10-1.3-14.5-3.6c-4.5-2.4-8.3-5.8-11.1-10l-57.1-87.3
	c-4.5-6.9-10.6-12.6-17.9-16.7c-7.2-4-15.3-6.3-23.5-6.5H328.2c-8.3,0.2-16.3,2.5-23.5,6.5c-7.2,4-13.3,9.8-17.9,16.7l-60,87.3
	c-2.8,4.2-6.7,7.6-11.1,10c-4.5,2.4-9.5,3.6-14.5,3.6h-41.4c-13.7,0-26.9,5.4-36.6,15.1c-9.7,9.7-15.2,22.9-15.2,36.6v248.4
	c0,13.7,5.5,26.9,15.2,36.6c9.7,9.7,22.9,15.2,36.6,15.2h496.8c13.7,0,26.9-5.5,36.6-15.2c9.7-9.7,15.1-22.9,15.1-36.6V321.3
	C708.2,307.6,702.8,294.5,693.1,284.7z M503.1,479.1c-25.2,25.2-59.4,39.4-95,39.5c-26.6,0-52.6-7.9-74.7-22.7
	c-22.1-14.8-39.4-35.8-49.5-60.4c-10.2-24.6-12.8-51.6-7.7-77.7c5.2-26.1,18-50.1,36.8-68.9c18.8-18.8,42.8-31.6,68.9-36.8
	c26.1-5.2,53.2-2.5,77.7,7.7c24.6,10.2,45.6,27.4,60.4,49.5c14.8,22.1,22.7,48.1,22.7,74.8C542.5,419.7,528.3,453.8,503.1,479.1z"/>
<path d="M520,309.3c-14.8-22.1-35.8-39.4-60.4-49.5c-24.6-10.2-51.6-12.8-77.7-7.7c-26.1,5.2-50.1,18-68.9,36.8
	c-18.8,18.8-31.6,42.8-36.8,68.9c-5.2,26.1-2.5,53.2,7.7,77.7c10.2,24.6,27.4,45.6,49.5,60.4c22.1,14.8,48.1,22.7,74.7,22.7
	c35.7-0.1,69.8-14.3,95-39.5c25.2-25.2,39.4-59.4,39.5-95C542.6,357.4,534.8,331.4,520,309.3z M468.3,424.3
	c-8,11.9-19.3,21.2-32.5,26.7c-13.2,5.5-27.8,6.9-41.9,4.1c-14-2.8-27-9.7-37.1-19.8s-17-23-19.8-37.1c-2.8-14-1.4-28.6,4.1-41.9
	c5.5-13.2,14.8-24.5,26.7-32.5c11.9-8,25.9-12.2,40.2-12.2c19.2,0.1,37.6,7.8,51.1,21.3c13.6,13.6,21.2,31.9,21.3,51.1
	C480.5,398.4,476.3,412.4,468.3,424.3z"/>
<path class="st0" d="M480.5,384c0,14.3-4.2,28.3-12.2,40.2c-8,11.9-19.3,21.2-32.5,26.7c-13.2,5.5-27.8,6.9-41.9,4.1
	c-14-2.8-27-9.7-37.1-19.8s-17-23-19.8-37.1c-2.8-14-1.4-28.6,4.1-41.9c5.5-13.2,14.8-24.5,26.7-32.5c11.9-8,25.9-12.2,40.2-12.2
	c19.2,0.1,37.6,7.8,51.1,21.3C472.8,346.5,480.4,364.9,480.5,384z"/>
</svg>
