<svg xmlns="http://www.w3.org/2000/svg" xml:space="preserve" id="Layer_1" x="0" y="0" style="enable-background:new 0 0 225 225" version="1.1" viewBox="0 0 225 225"><style>.st1{fill:gray}</style><path d="M1222 1999c-114-57-147-212-65-309 39-47 93-70 160-70 97 0 168 56 194 153 43 159-138 301-289 226z" style="fill:#b50000" transform="matrix(.1 0 0 -.1 0 225)"/><path d="M88 38.4C63.3 47 45.9 64.7 38 89.3c-1.8 5.4-1.9 7-.9 8.9 1.6 3 2.8 3.8 6 3.8 3.3 0 5.2-2.3 6.8-8 5.8-20.1 24-38.3 44.1-44.1 5.7-1.6 8-3.5 8-6.8 0-3.2-.8-4.4-3.7-6-2.7-1.4-2.5-1.4-10.3 1.3zM158.6 56.1c-4 3.1-3.3 5.9 2.9 13.1 6.3 7.1 12.7 19.3 15 28.3 1.9 7.4 1.9 22.1.1 29.9-2 8.5-.4 11.6 5.8 11.6 3.5 0 5.5-3.1 7.2-11.1 2.2-10.2 1.4-27.8-1.6-37.4-5.2-16.5-19.1-36.3-25.6-36.5-.6 0-2.3.9-3.8 2.1zM101.2 89.6c-11.7 5.8-16.9 18.6-13 31.8 1.9 6.3 10 14 16.7 16 6.8 2 9.4 2 16 0 7.6-2.2 14.4-9.2 16.7-16.9 3-10.5.2-20-8-27.2-7.8-6.9-19-8.4-28.4-3.7z" class="st1"/><path d="M366 1125c-106-37-163-162-120-263 52-124 192-165 305-89 103 69 107 245 7 320-33 25-96 47-133 47-11-1-37-7-59-15z" style="fill:#154599" transform="matrix(.1 0 0 -.1 0 225)"/><path d="M56.1 158.6c-1.2 1.5-2.1 3.2-2.1 3.8 0 4.1 11.9 14.5 22.9 20.1 12.8 6.4 20 8 35.6 8 22 0 28.8-3 25.9-11.4-1.1-2.9-.3-2.9-22.4-1.6-9.1.6-12.9.4-18-.9-9.6-2.4-21.8-8.8-28.9-15.1-7-6.2-9.9-6.9-13-2.9z" class="st1"/><path d="M1588 758.3c-114-57-147-212-65-309 39-47 93-70 160-70 97 0 168 56 194 153 43 159-138 301-289 226z" style="fill:#dfdb00" transform="matrix(.1 0 0 -.1 0 225)"/></svg>