<?xml version="1.0" encoding="utf-8"?>
<!DOCTYPE svg PUBLIC "-//W3C//DTD SVG 1.1//EN" "http://www.w3.org/Graphics/SVG/1.1/DTD/svg11.dtd" [
	<!ENTITY ns_extend "http://ns.adobe.com/Extensibility/1.0/">
	<!ENTITY ns_ai "http://ns.adobe.com/AdobeIllustrator/10.0/">
	<!ENTITY ns_graphs "http://ns.adobe.com/Graphs/1.0/">
	<!ENTITY ns_vars "http://ns.adobe.com/Variables/1.0/">
	<!ENTITY ns_imrep "http://ns.adobe.com/ImageReplacement/1.0/">
	<!ENTITY ns_sfw "http://ns.adobe.com/SaveForWeb/1.0/">
	<!ENTITY ns_custom "http://ns.adobe.com/GenericCustomNamespace/1.0/">
	<!ENTITY ns_adobe_xpath "http://ns.adobe.com/XPath/1.0/">
]>
<svg version="1.1" id="Layer_1" xmlns:x="&ns_extend;" xmlns:i="&ns_ai;" xmlns:graph="&ns_graphs;"
	 xmlns="http://www.w3.org/2000/svg" xmlns:xlink="http://www.w3.org/1999/xlink" x="0px" y="0px" viewBox="0 0 800 800"
	 style="enable-background:new 0 0 800 800;" xml:space="preserve">
<style type="text/css">
	.st0{fill:#E2E3E5;}
	.st1{fill:#F8F8F9;}
</style>
<metadata>
	<sfw  xmlns="&ns_sfw;">
		<slices></slices>
		<sliceSourceBounds  bottomLeftOrigin="true" height="252" width="470" x="162.5" y="274"></sliceSourceBounds>
	</sfw>
</metadata>
<path class="st0" d="M592.5,328c0-4.8-0.7-9.5-1.9-14c-6.3-23.1-28-40-53.1-40h-320c-30,0-55,24-55,55v142c0,30,24,55,55,55h320
	c26.4,0,48.4-17.4,53.8-41c0.9-4.2,1.4-8.5,1.2-13v-2c23-4,40-23,40-47v-48C632.5,351,615.5,332,592.5,328z M591.5,422c0,3-3,6-6,6
	h-13c-12,0-21,10-21,21v22c0,8-6,14-14,14h-320c-8,0-14-6-14-14V329c0-8,6-14,14-14v-1h320c8,0,14,6,14,14v19c0,12,10,21,21,21h13
	c3,0,6,3,6,6V422z"/>
<path d="M591.5,374v48c0,3-3,6-6,6h-13c-12,0-21,10-21,21v22c0,8-6,14-14,14H476V314h61.5c8,0,14,6,14,14v19c0,12,10,21,21,21h13
	C588.5,368,591.5,371,591.5,374z"/>
<path class="st1" d="M476,314v171H217.5c-8,0-14-6-14-14V329c0-8,6-14,14-14v-1H476z"/>
</svg>
