<?xml version="1.0" standalone="no"?>
<!DOCTYPE svg PUBLIC "-//W3C//DTD SVG 20010904//EN"
 "http://www.w3.org/TR/2001/REC-SVG-20010904/DTD/svg10.dtd">
<svg version="1.0" xmlns="http://www.w3.org/2000/svg"
 width="127.000000pt" height="132.000000pt" viewBox="0 0 127.000000 132.000000"
 preserveAspectRatio="xMidYMid meet">
<metadata>
Created by potrace 1.16, written by Peter Selinger 2001-2019
</metadata>
<g transform="translate(0.000000,132.000000) scale(0.100000,-0.100000)"
fill="#000000" stroke="none">
<path d="M600 1138 c-86 -24 -157 -106 -174 -199 -6 -33 -10 -37 -47 -43 -112
-18 -198 -118 -199 -230 0 -79 19 -126 75 -182 42 -43 61 -54 107 -64 l55 -13
17 -58 c36 -129 157 -206 284 -178 96 20 180 106 190 194 l5 45 -60 0 c-59 0
-61 -1 -67 -31 -3 -17 -19 -44 -35 -60 -25 -25 -37 -29 -81 -29 -46 0 -56 4
-86 34 -21 21 -34 44 -34 60 0 25 -2 26 -65 26 l-65 0 0 59 c0 59 -1 60 -34
71 -56 18 -81 53 -81 115 0 46 4 58 29 84 16 16 42 33 57 36 28 6 29 9 29 65
l0 59 62 3 c59 3 62 4 69 32 18 65 91 107 153 86 40 -13 74 -48 85 -86 7 -27
11 -29 64 -32 l57 -3 0 33 c-1 51 -32 110 -84 155 -65 57 -143 75 -226 51z"/>
<path d="M920 843 c0 -58 0 -58 40 -75 104 -43 103 -185 -1 -226 l-39 -15 0
-60 0 -59 37 7 c147 27 234 172 191 319 -16 55 -101 140 -154 155 -71 20 -74
18 -74 -46z"/>
<path d="M617 879 c-48 -11 -101 -47 -133 -90 -109 -148 -1 -358 185 -359 195
-1 299 227 171 373 -60 68 -140 95 -223 76z m129 -143 c29 -29 34 -41 34 -80
0 -36 -6 -52 -29 -78 -26 -29 -36 -33 -79 -33 -40 0 -56 5 -76 24 -82 77 -35
199 78 201 30 0 45 -7 72 -34z"/>
</g>
</svg>
