<svg width="28" height="19" viewBox="0 0 28 19" fill="none" xmlns="http://www.w3.org/2000/svg">
<path d="M3.14612 12.538C3.14612 13.5656 3.37074 14.3544 3.66455 14.8317C4.04966 15.4568 4.62402 15.7222 5.20961 15.7222C5.96479 15.7222 6.65573 15.5341 7.98718 13.6857C9.05414 12.2043 10.3108 10.1249 11.1565 8.82127L12.5887 6.61268C13.5835 5.07885 14.7351 3.3738 16.0554 2.21804C17.1336 1.27466 18.296 0.75061 19.4662 0.75061C21.4308 0.75061 23.3022 1.89329 24.7343 4.03638C26.3018 6.3834 27.0626 9.33979 27.0626 12.3905C27.0626 14.2043 26.7064 15.5369 26.1003 16.5897C25.5148 17.6078 24.3735 18.6252 22.4536 18.6252V15.7217C24.0975 15.7217 24.5077 14.2056 24.5077 12.4706C24.5077 9.9981 23.9333 7.2543 22.668 5.2937C21.7702 3.90303 20.6066 3.05332 19.3263 3.05332C17.9417 3.05332 16.8274 4.10165 15.5751 5.97027C14.9094 6.96325 14.226 8.17322 13.4585 9.53864L12.6137 11.0407C10.9169 14.0611 10.487 14.7487 9.63849 15.8836C8.15138 17.8711 6.88136 18.6247 5.20961 18.6247C3.22631 18.6247 1.97224 17.7627 1.1955 16.4638C0.5615 15.4054 0.250061 14.0166 0.250061 12.4342L3.14612 12.538Z" fill="#0081FB"/>
<path d="M2.5336 4.24071C3.86134 2.18655 5.77748 0.75 7.97519 0.75C9.2479 0.75 10.5134 1.12807 11.8344 2.2109C13.2796 3.39449 14.82 5.34461 16.7418 8.55722L17.4308 9.70982C19.0942 12.4912 20.0406 13.9221 20.5945 14.5968C21.3068 15.4633 21.8056 15.7217 22.4536 15.7217C24.0975 15.7217 24.5077 14.2056 24.5077 12.4706L27.0626 12.3905C27.0626 14.2043 26.7064 15.5369 26.1003 16.5897C25.5148 17.6078 24.3735 18.6252 22.4536 18.6252C21.2601 18.6252 20.2028 18.3645 19.0336 17.2573C18.1351 16.4076 17.0839 14.8981 16.2754 13.5412L13.8707 9.50962C12.6643 7.48635 11.5571 5.97777 10.917 5.29456C10.2278 4.55983 9.34202 3.67269 7.92847 3.67269C6.78447 3.67269 5.81286 4.47844 4.99984 5.71096L2.5336 4.24071Z" fill="url(#paint0_linear_3_70)"/>
<path d="M7.92847 3.67269C6.78447 3.67269 5.81286 4.47844 4.99984 5.71096C3.85011 7.45253 3.14612 10.0468 3.14612 12.538C3.14612 13.5656 3.37074 14.3544 3.66455 14.8317L1.1955 16.4638C0.5615 15.4054 0.250061 14.0166 0.250061 12.4342C0.250061 9.55645 1.03705 6.55695 2.5336 4.24071C3.86134 2.18655 5.77748 0.75 7.97519 0.75L7.92847 3.67269Z" fill="url(#paint1_linear_3_70)"/>
<defs>
<linearGradient id="paint0_linear_3_70" x1="3.40551" y1="15.9512" x2="23.4652" y2="18.0442" gradientUnits="userSpaceOnUse">
<stop stop-color="#0064E1"/>
<stop offset="0.4" stop-color="#0064E1"/>
<stop offset="0.83" stop-color="#0073EE"/>
<stop offset="1" stop-color="#0082FB"/>
</linearGradient>
<linearGradient id="paint1_linear_3_70" x1="5.79182" y1="13.7582" x2="5.79182" y2="6.92657" gradientUnits="userSpaceOnUse">
<stop stop-color="#0082FB"/>
<stop offset="1" stop-color="#0064E0"/>
</linearGradient>
</defs>
</svg>
